<svg xmlns="http://www.w3.org/2000/svg" width="1024" height="1024" viewBox="0 0 1024 1024">
  <defs>
    <clipPath id="squircle">
      <rect x="100" y="100" width="824" height="824" rx="185" ry="185"/>
    </clipPath>
    <linearGradient id="sky" x1="0" y1="0" x2="0" y2="1">
      <stop offset="0%" stop-color="#2a1f3d"/>
      <stop offset="15%" stop-color="#7a4a5a"/>
      <stop offset="35%" stop-color="#e8825c"/>
      <stop offset="55%" stop-color="#ffab5e"/>
      <stop offset="70%" stop-color="#ffe0a0"/>
      <stop offset="100%" stop-color="#fff3d0"/>
    </linearGradient>
    <radialGradient id="sun" cx="50%" cy="50%" r="50%">
      <stop offset="0%" stop-color="#fff6df"/>
      <stop offset="55%" stop-color="#ffcf6b"/>
      <stop offset="100%" stop-color="#e8825c"/>
    </radialGradient>
    <linearGradient id="sea" x1="0" y1="0" x2="0" y2="1">
      <stop offset="0%" stop-color="#6b3f4a"/>
      <stop offset="35%" stop-color="#3a2438"/>
      <stop offset="100%" stop-color="#150f22"/>
    </linearGradient>
    <radialGradient id="glow" cx="50%" cy="50%" r="50%">
      <stop offset="0%" stop-color="#ffe9b0" stop-opacity="0.55"/>
      <stop offset="100%" stop-color="#ffe9b0" stop-opacity="0"/>
    </radialGradient>
  </defs>

  <g clip-path="url(#squircle)">
    <rect x="100" y="100" width="824" height="824" fill="url(#sky)"/>

    <circle cx="512" cy="630" r="280" fill="url(#glow)"/>
    <circle cx="512" cy="630" r="130" fill="url(#sun)"/>

    <rect x="100" y="680" width="824" height="244" fill="url(#sea)"/>

    <g>
      <ellipse cx="512" cy="700" rx="95" ry="13" fill="#ffcf6b" opacity="0.62"/>
      <ellipse cx="512" cy="735" rx="72" ry="11" fill="#ffcf6b" opacity="0.48"/>
      <ellipse cx="512" cy="770" rx="54" ry="9" fill="#ffcf6b" opacity="0.36"/>
      <ellipse cx="512" cy="808" rx="40" ry="8" fill="#ffcf6b" opacity="0.24"/>
      <ellipse cx="512" cy="850" rx="28" ry="6" fill="#ffcf6b" opacity="0.14"/>
    </g>

    <g fill="#150f22">
      <rect x="100" y="625" width="40" height="55"/>
      <rect x="140" y="600" width="55" height="80"/>
      <rect x="195" y="635" width="35" height="45"/>
      <rect x="230" y="585" width="60" height="95"/>
      <rect x="290" y="615" width="45" height="65"/>
      <rect x="335" y="595" width="50" height="85"/>
      <rect x="385" y="630" width="38" height="50"/>
      <rect x="423" y="588" width="65" height="92"/>
      <rect x="488" y="620" width="42" height="60"/>
      <rect x="530" y="592" width="55" height="88"/>
      <rect x="585" y="610" width="48" height="70"/>
      <rect x="633" y="590" width="60" height="90"/>
      <rect x="693" y="628" width="40" height="52"/>
      <rect x="733" y="598" width="58" height="82"/>
      <rect x="791" y="618" width="45" height="62"/>
      <rect x="836" y="602" width="50" height="78"/>
      <rect x="886" y="632" width="38" height="48"/>
      <rect x="257" y="545" width="4" height="40"/>
      <rect x="660" y="560" width="4" height="30"/>
    </g>
    <circle cx="259" cy="542" r="6" fill="#ffe9b0"/>

    <g fill="#ffe0a3" opacity="0.5">
      <rect x="238" y="605" width="6" height="8"/>
      <rect x="252" y="605" width="6" height="8"/>
      <rect x="238" y="625" width="6" height="8"/>
      <rect x="252" y="625" width="6" height="8"/>
      <rect x="238" y="645" width="6" height="8"/>
      <rect x="252" y="645" width="6" height="8"/>
      <rect x="238" y="663" width="6" height="8"/>
      <rect x="252" y="663" width="6" height="8"/>

      <rect x="433" y="605" width="6" height="8"/>
      <rect x="449" y="605" width="6" height="8"/>
      <rect x="465" y="605" width="6" height="8"/>
      <rect x="433" y="623" width="6" height="8"/>
      <rect x="449" y="623" width="6" height="8"/>
      <rect x="465" y="623" width="6" height="8"/>
      <rect x="433" y="641" width="6" height="8"/>
      <rect x="449" y="641" width="6" height="8"/>
      <rect x="465" y="641" width="6" height="8"/>
      <rect x="433" y="659" width="6" height="8"/>
      <rect x="449" y="659" width="6" height="8"/>
      <rect x="465" y="659" width="6" height="8"/>

      <rect x="641" y="608" width="6" height="8"/>
      <rect x="655" y="608" width="6" height="8"/>
      <rect x="641" y="626" width="6" height="8"/>
      <rect x="655" y="626" width="6" height="8"/>
      <rect x="641" y="644" width="6" height="8"/>
      <rect x="655" y="644" width="6" height="8"/>
      <rect x="641" y="662" width="6" height="8"/>
      <rect x="655" y="662" width="6" height="8"/>
    </g>
  </g>
</svg>
